<svg id="Layer_1" height="512" viewBox="0 0 128 128" width="512" xmlns="http://www.w3.org/2000/svg" xmlns:xlink="http://www.w3.org/1999/xlink" data-name="Layer 1"><linearGradient id="linear-gradient" gradientUnits="userSpaceOnUse" x1="106.661" x2="21.339" y1="121.122" y2="35.8"><stop offset="0" stop-color="#fb503c"/><stop offset="1" stop-color="#3988d2"/></linearGradient><path d="m103.808 113.75h-9.308v-15.942a1.75 1.75 0 0 0 -1.75-1.75h-12.55c-3.264-5.983-5.407-14.074-6.375-19.631l13.964 7.341a1.75 1.75 0 0 0 2.539-1.845l-.936-5.452a1.75 1.75 0 0 0 -3.449.592l.336 1.957-13.837-7.275-.027-.014-7.6-4a1.753 1.753 0 0 0 -1.629 0l-21.464 11.289 4.1-23.9a1.749 1.749 0 0 0 -.5-1.549l-17.369-16.927 24-3.487a1.747 1.747 0 0 0 1.318-.957l10.729-21.746 10.731 21.746a1.748 1.748 0 0 0 1.317.957l24 3.487-17.365 16.926a1.749 1.749 0 0 0 -.5 1.549l.973 5.672a1.75 1.75 0 0 0 3.444-.591l-.817-4.765 19.245-18.76a1.75 1.75 0 0 0 -.97-2.984l-26.6-3.865-11.889-24.1a1.75 1.75 0 0 0 -3.139 0l-11.894 24.1-26.6 3.865a1.749 1.749 0 0 0 -.97 2.984l19.245 18.76-4.538 26.488a1.75 1.75 0 0 0 2.539 1.845l23.788-12.506 5.976 3.138a76.29 76.29 0 0 0 6.283 21.654h-24.523a69.8 69.8 0 0 0 4.7-13.419 1.75 1.75 0 1 0 -3.4-.84 61.811 61.811 0 0 1 -5.236 14.263h-12.55a1.75 1.75 0 0 0 -1.75 1.75v15.942h-9.308a1.75 1.75 0 0 0 -1.75 1.75v6a1.75 1.75 0 0 0 1.75 1.75h79.615a1.75 1.75 0 0 0 1.75-1.75v-6a1.75 1.75 0 0 0 -1.749-1.75zm-1.75 6h-76.116v-2.5h17.558a1.75 1.75 0 0 0 0-3.5h-6.5v-14.192h54v14.192h-38.667a1.75 1.75 0 0 0 0 3.5h49.725zm-14.3-52.8.557 3.247a1.75 1.75 0 0 1 -1.429 2.021 1.728 1.728 0 0 1 -.3.025 1.749 1.749 0 0 1 -1.723-1.454l-.557-3.247a1.75 1.75 0 1 1 3.449-.592zm-30.343-30.293a1.75 1.75 0 0 1 -1.48 1.983l-18.6 2.7a1.717 1.717 0 0 1 -.253.019 1.75 1.75 0 0 1 -.25-3.481l18.6-2.7a1.75 1.75 0 0 1 1.983 1.479z" fill="url(#linear-gradient)"/></svg>