<svg height="512pt" viewBox="-55 0 512 512.0011" width="512pt" xmlns="http://www.w3.org/2000/svg"><path d="m10.433594 387.390625c-12.816406-4.664063-13.976563-33.800781-2.589844-65.082031 11.382812-31.28125 31.003906-52.859375 43.820312-48.191406l340.613282 123.972656-41.226563 113.277344zm0 0" fill="#b46e5a"/><path d="m201.355469 456.882812 149.695312 54.484376 41.226563-113.277344-14.695313-5.347656zm0 0" fill="#a65d4e"/><path d="m392.273438 398.078125c-12.816407-4.664063-32.4375 16.910156-43.820313 48.191406s-10.222656 60.421875 2.59375 65.085938c12.816406 4.664062 32.433594-16.914063 43.816406-48.195313 11.386719-31.28125 10.226563-60.417968-2.589843-65.082031zm0 0" fill="#f3d69e"/><path d="m392.277344 398.089844c-.992188-.359375-2.027344-.546875-3.097656-.601563 3.632812 12.253907 1.707031 32.59375-6.058594 53.9375-10.503906 28.855469-28.011719 49.4375-40.722656 48.792969 1.6875 5.707031 4.578124 9.667969 8.652343 11.148438 12.816407 4.664062 32.433594-16.914063 43.820313-48.191407 11.382812-31.28125 10.222656-60.421875-2.59375-65.085937zm0 0" fill="#edc472"/><path d="m392.277344 387.390625c12.816406-4.664063 13.976562-33.800781 2.589844-65.082031-11.382813-31.28125-31.003907-52.859375-43.820313-48.191406l-340.613281 123.972656 41.230468 113.277344zm0 0" fill="#b46e5a"/><path d="m394.871094 322.308594c-9.578125-26.3125-24.976563-45.75-37.257813-48.488282 6.605469 8.5 12.871094 19.953126 17.671875 33.144532 11.386719 31.277344 10.226563 60.417968-2.589844 65.085937l-328.253906 119.472657 7.222656 19.84375 340.613282-123.976563c12.816406-4.664063 13.976562-33.800781 2.59375-65.082031zm0 0" fill="#a65d4e"/><path d="m54.246094 446.289062c-11.386719-31.28125-31.003906-52.859374-43.820313-48.195312-12.816406 4.664062-13.976562 33.804688-2.59375 65.085938 11.386719 31.28125 31.003907 52.855468 43.820313 48.191406 12.816406-4.664063 13.976562-33.804688 2.59375-65.082032zm0 0" fill="#f3d69e"/><path d="m54.253906 446.28125c-8.140625-22.359375-20.484375-39.757812-31.546875-46.15625 5.6875 8.066406 11.011719 18.28125 15.210938 29.820312 11.386719 31.28125 10.226562 60.421876-2.589844 65.085938-3.652344 1.332031-7.863281.519531-12.273437-2.035156 9.726562 13.800781 20.519531 21.3125 28.609374 18.371094 12.816407-4.667969 13.976563-33.804688 2.589844-65.085938zm0 0" fill="#edc472"/><path d="m305.875 134.136719c-2.039062 4.578125-4.195312 8.839843-6.386719 12.777343-8.289062 14.910157-30.617187 11.746094-34.519531-4.859374-18.28125-77.742188-44.816406-121.300782-57.226562-138.53125-3.382813-4.699219-10.371094-4.699219-13.757813 0-12.40625 17.230468-38.941406 60.785156-57.222656 138.53125-3.902344 16.605468-26.230469 19.769531-34.523438 4.859374-2.1875-3.9375-4.34375-8.199218-6.382812-12.777343-3.058594-6.875-12.867188-6.703125-15.640625.289062-8.246094 20.804688-19.523438 55.125-19.523438 87.292969 0 114.140625 95.914063 108.132812 140.171875 108.132812 44.261719 0 140.171875 6.007813 140.171875-108.132812 0-32.167969-11.273437-66.488281-19.519531-87.292969-2.773437-6.992187-12.582031-7.164062-15.640625-.289062zm0 0" fill="#fc9842"/><path d="m240.277344 142.0625c3.386718 14.402344 20.648437 18.722656 30.558594 9.859375-2.769532-2.402344-4.894532-5.714844-5.867188-9.859375-18.273438-77.734375-44.804688-121.292969-57.214844-138.527344-3.390625-4.703125-10.378906-4.703125-13.765625 0-1.605469 2.226563-3.441406 4.890625-5.46875 8.011719 13.660157 21.03125 35.835938 62.789063 51.757813 130.515625zm0 0" fill="#fb8723"/><path d="m305.890625 134.085938c-1.667969 3.742187-3.414063 7.273437-5.191406 10.589843 7.507812 20.832031 15.648437 49.703125 15.648437 77.042969 0 98.484375-71.402344 107.519531-119.421875 108.144531 1.351563-.007812 2.667969-.011719 3.941407-.011719 44.257812 0 140.171874 6.007813 140.171874-108.132812 0-32.171875-11.277343-66.496094-19.527343-87.300781-2.765625-6.972657-12.570313-7.183594-15.621094-.332031zm0 0" fill="#fb8723"/><path d="m252.25 234.519531c-.472656.824219-.945312 1.621094-1.417969 2.386719-3.992187 6.464844-13.820312 4.757812-15.480469-2.652344-8.175781-36.460937-19.882812-59.191406-27.332031-70.917968-3.328125-5.242188-10.976562-5.242188-14.304687 0-7.453125 11.726562-19.160156 34.457031-27.335938 70.917968-1.660156 7.410156-11.488281 9.117188-15.480468 2.652344-.472657-.765625-.945313-1.5625-1.417969-2.386719-3.640625-6.355469-13.074219-5.484375-15.414063 1.457031-3.554687 10.5625-6.988281 24.097657-6.988281 36.980469 0 60.082031 50.488281 56.921875 73.789063 56.921875 23.296874 0 73.785156 3.160156 73.785156-56.921875 0-12.882812-3.433594-26.417969-6.988282-36.980469-2.339843-6.941406-11.773437-7.8125-15.414062-1.457031zm0 0" fill="#ffea84"/><g fill="#a65d4e"><path d="m99.816406 337.011719c-.90625 0-1.824218-.152344-2.71875-.480469l-31.46875-11.453125c-4.125-1.503906-6.253906-6.066406-4.75-10.191406 1.5-4.128907 6.0625-6.253907 10.191406-4.753907l31.464844 11.453126c4.128906 1.5 6.257813 6.0625 4.753906 10.191406-1.175781 3.230468-4.226562 5.234375-7.472656 5.234375zm0 0"/><path d="m77.273438 414.679688c-3.25 0-6.300782-2.007813-7.476563-5.234376-1.5-4.128906.628906-8.691406 4.753906-10.195312l39.332031-14.316406c4.128907-1.5 8.691407.628906 10.195313 4.753906 1.5 4.128906-.628906 8.691406-4.753906 10.195312l-39.332031 14.3125c-.898438.328126-1.816407.484376-2.71875.484376zm0 0"/><path d="m169.25 417.726562c-3.25 0-6.300781-2.003906-7.476562-5.234374-1.5-4.128907.628906-8.691407 4.753906-10.195313l24.386718-8.875c4.128907-1.503906 8.691407.625 10.191407 4.753906 1.503906 4.128907-.625 8.691407-4.75 10.195313l-24.386719 8.875c-.898438.324218-1.816406.480468-2.71875.480468zm0 0"/><path d="m302.898438 337.011719c-3.25 0-6.300782-2.003907-7.476563-5.234375-1.503906-4.128906.628906-8.691406 4.753906-10.191406l31.464844-11.453126c4.132813-1.503906 8.691406.625 10.195313 4.753907 1.503906 4.125-.628907 8.691406-4.753907 10.191406l-31.464843 11.453125c-.898438.328125-1.816407.480469-2.71875.480469zm0 0"/><path d="m284.675781 397.09375c-3.25 0-6.296875-2.003906-7.472656-5.234375-1.503906-4.128906.625-8.691406 4.75-10.195313l31.46875-11.449218c4.132813-1.503906 8.691406.625 10.191406 4.753906 1.503907 4.125-.625 8.691406-4.75 10.191406l-31.46875 11.453125c-.894531.328125-1.816406.480469-2.71875.480469zm0 0"/><path d="m116.605469 457.050781c-3.25 0-6.300781-2.003906-7.476563-5.234375-1.5-4.128906.628906-8.691406 4.753906-10.195312l21.269532-7.738282c4.128906-1.503906 8.695312.625 10.195312 4.75 1.503906 4.128907-.625 8.691407-4.753906 10.195313l-21.269531 7.742187c-.898438.328126-1.816407.480469-2.71875.480469zm0 0"/><path d="m193.339844 378.671875c-3.25 0-6.300782-2.003906-7.476563-5.234375-1.503906-4.128906.625-8.691406 4.753907-10.195312l16.378906-5.957032c1.703125-9.148437 8.433594-15.546875 15.007812-17.941406 6.574219-2.398438 15.847656-1.820312 23.039063 4.09375l16.378906-5.960938c4.132813-1.503906 8.691406.625 10.195313 4.753907 1.5 4.125-.628907 8.691406-4.753907 10.191406l-21.242187 7.730469c-3.324219 1.210937-7.046875.082031-9.136719-2.773438-3.007813-4.109375-7.648437-3.59375-9.039063-3.089844-1.382812.507813-5.269531 3.09375-4.933593 8.175782.234375 3.527344-1.890625 6.789062-5.214844 8l-21.242187 7.726562c-.894532.328125-1.816407.480469-2.714844.480469zm0 0"/></g><path d="m298.359375 78.335938c-4.199219 0-7.707031-3.285157-7.9375-7.527344-.234375-4.386719 3.132813-8.132813 7.515625-8.367188l5.296875-.285156c4.363281-.199219 8.128906 3.132812 8.367187 7.519531.234376 4.382813-3.132812 8.128907-7.515624 8.363281l-5.296876.285157c-.144531.007812-.285156.011719-.429687.011719zm0 0" fill="#ffea84"/><path d="m283.855469 65.308594c-4.195313 0-7.707031-3.285156-7.933594-7.527344l-.285156-5.296875c-.234375-4.382813 3.128906-8.128906 7.515625-8.367187 4.363281-.210938 8.132812 3.132812 8.367187 7.519531l.285157 5.292969c.234374 4.386718-3.128907 8.132812-7.515626 8.367187-.144531.007813-.289062.011719-.433593.011719zm0 0" fill="#ffea84"/><path d="m119.210938 49.386719c-4.390626 0-7.953126-3.5625-7.953126-7.953125v-5.304688c0-4.390625 3.5625-7.953125 7.953126-7.953125 4.394531 0 7.953124 3.5625 7.953124 7.953125v5.304688c0 4.390625-3.558593 7.953125-7.953124 7.953125zm0 0" fill="#ffea84"/><path d="m105.425781 63.171875h-5.300781c-4.394531 0-7.953125-3.5625-7.953125-7.953125 0-4.394531 3.558594-7.953125 7.953125-7.953125h5.300781c4.394531 0 7.953125 3.558594 7.953125 7.953125 0 4.390625-3.558594 7.953125-7.953125 7.953125zm0 0" fill="#ffea84"/></svg>