<svg id="Layer_3" enable-background="new 0 0 64 64" height="512" viewBox="0 0 64 64" width="512" xmlns="http://www.w3.org/2000/svg"><path d="m29 7v-5h6v5" fill="#807f80"/><path d="m29 2h3v5h-3z" fill="#aaa9aa"/><path d="m27 16v-9h10v9" fill="#aaa9aa"/><path d="m27 7h7v9h-7z" fill="#e3e1e3"/><path d="m37 62h-10c-1.105 0-2-.895-2-2v-14h14v14c0 1.105-.895 2-2 2z" fill="#807f80"/><path d="m36 60v-14h-11v14c0 1.105.895 2 2 2h7c1.105 0 2-.895 2-2z" fill="#aaa9aa"/><path d="m25 28v-12h14v12" fill="#807f80"/><path d="m25 16h11v12h-11z" fill="#aaa9aa"/><path d="m25 34h14v6h-14z" fill="#807f80"/><path d="m25 34h11v6h-11z" fill="#aaa9aa"/><path d="m21 28h22v6h-22z" fill="#aaa9aa"/><path d="m21 28h19v6h-19z" fill="#e3e1e3"/><path d="m21 40h22v6h-22z" fill="#aaa9aa"/><path d="m21 40h19v6h-19z" fill="#e3e1e3"/><g fill="#605f60"><path d="m25 49h14v2h-14z"/><path d="m25 53h14v2h-14z"/><path d="m25 57h14v2h-14z"/><path d="m14 45h-10c-.404 0-.769-.243-.924-.617s-.069-.804.217-1.09l6.293-6.293-7.293-7.293c-.286-.286-.372-.716-.217-1.09.155-.373.52-.617.924-.617h7v-8c0-.404.244-.769.617-.924.373-.156.803-.07 1.09.217l6 6-1.414 1.414-4.293-4.293v6.586c0 .552-.448 1-1 1h-5.586l6.293 6.293c.391.391.391 1.023 0 1.414l-5.293 5.293h7.586z"/><path d="m60 45h-10v-2h7.586l-5.293-5.293c-.391-.391-.391-1.023 0-1.414l6.293-6.293h-5.586c-.552 0-1-.448-1-1v-6.586l-4.293 4.293-1.414-1.414 6-6c.286-.287.715-.373 1.09-.217.373.155.617.52.617.924v8h7c.404 0 .769.244.924.617.155.374.069.804-.217 1.09l-7.293 7.293 6.293 6.293c.286.286.372.716.217 1.09s-.52.617-.924.617z"/></g></svg>