<svg id="Layer_1" height="512" viewBox="0 0 128 128" width="512" xmlns="http://www.w3.org/2000/svg" xmlns:xlink="http://www.w3.org/1999/xlink" data-name="Layer 1"><linearGradient id="linear-gradient" gradientUnits="userSpaceOnUse" x1="106.307" x2="21.636" y1="106.927" y2="22.256"><stop offset="0" stop-color="#1bce89"/><stop offset="1" stop-color="#4e8ed5"/></linearGradient><path d="m112.96 76.769a1.749 1.749 0 0 1 -2.474-.084 7.338 7.338 0 0 0 -2.026-1.5 46.325 46.325 0 0 1 -44.45 33.059h-.14a46.324 46.324 0 0 1 -44.432-33 7.271 7.271 0 0 0 -1.924 1.441 1.75 1.75 0 0 1 -2.558-2.385 11.576 11.576 0 0 1 4.771-2.964 1.531 1.531 0 0 1 .717-.225 14.443 14.443 0 0 1 5.92-.477 1.75 1.75 0 1 1 -.573 3.453 10.161 10.161 0 0 0 -3.023.081 42.827 42.827 0 0 0 41.1 30.582h.14a42.827 42.827 0 0 0 41.107-30.6 10.032 10.032 0 0 0 -2.908-.063 1.75 1.75 0 1 1 -.573-3.453 14.489 14.489 0 0 1 6.057.516h.026c.015 0 .027.011.042.015a11.817 11.817 0 0 1 5.283 3.131 1.749 1.749 0 0 1 -.082 2.473zm-77.4-26.8a1.75 1.75 0 0 0 1.75-1.75 6.477 6.477 0 1 1 12.954 0 1.75 1.75 0 0 0 3.5 0 9.977 9.977 0 1 0 -19.954 0 1.75 1.75 0 0 0 1.75 1.745zm40.427 0a1.75 1.75 0 0 0 1.75-1.75 6.477 6.477 0 1 1 12.954 0 1.75 1.75 0 0 0 3.5 0 9.977 9.977 0 1 0 -19.954 0 1.75 1.75 0 0 0 1.749 1.745zm34.073-17.846a1.75 1.75 0 0 0 2.857-2.021c-.767-1.085-1.579-2.155-2.411-3.181a1.75 1.75 0 0 0 -2.717 2.207c.783.96 1.547 1.972 2.27 2.99zm7.295 5.32a1.75 1.75 0 0 0 -3.117 1.592 55.758 55.758 0 0 1 6.126 25.583 56.363 56.363 0 1 1 -110.318-16.362 1.75 1.75 0 1 0 -3.346-1.014 59.87 59.87 0 1 0 117.163 17.371 59.226 59.226 0 0 0 -6.509-27.175zm-106.155 2.801a1.75 1.75 0 0 0 2.348-.783 56.377 56.377 0 0 1 88.852-16.11 1.75 1.75 0 0 0 2.385-2.562 59.878 59.878 0 0 0 -94.37 17.111 1.75 1.75 0 0 0 .785 2.344z" fill="url(#linear-gradient)"/></svg>