<svg id="Flat" enable-background="new 0 0 512 512" height="512" viewBox="0 0 512 512" width="512" xmlns="http://www.w3.org/2000/svg"><circle cx="224" cy="224" fill="#6adcf2" r="216"/><path d="m366 339.176v-267.176c0-3.412.296-6.757.865-10.009-38.076-33.602-88.09-53.991-142.865-53.991-119.293 0-216 96.706-216 216s96.707 216 216 216c40.18 0 77.797-10.971 110.021-30.081-.014-.638-.021-1.278-.021-1.919 0-26.867 11.6-51.673 32-68.824z" fill="#60ddf5"/><path d="m440 224c0-64.518-28.287-122.43-73.135-162.009-.569 3.252-.865 6.597-.865 10.009v267.176c-20.4 17.151-32 41.958-32 68.824 0 .641.007 1.281.021 1.919 63.446-37.626 105.979-106.805 105.979-185.919z" fill="#38d4f2"/><path d="m472 343.997v-271.997c0-26.51-21.49-48-48-48s-48 21.49-48 48v271.997c-19.431 14.595-32 37.831-32 64.003 0 44.183 35.817 80 80 80s80-35.817 80-80c0-26.173-12.569-49.408-32-64.003z" fill="#ffde66"/><path d="m440 104v-31.58c0-8.213-6.017-15.419-14.18-16.319-9.651-1.065-17.82 6.463-17.82 15.899v290.735c-19.451 6.876-33.149 25.929-31.924 48.001 1.36 24.519 21.46 44.267 45.998 45.226 27.387 1.071 49.926-20.813 49.926-47.962 0-20.899-13.357-38.675-32-45.265v-242.735z" fill="#fffefe"/><path d="m440 362.735v-210.735h-32v210.735c-18.643 6.59-32 24.366-32 45.265 0 26.51 21.49 48 48 48s48-21.49 48-48c0-20.899-13.357-38.675-32-45.265z" fill="#ff7b66"/><circle cx="424" cy="408" fill="#ff9585" r="24"/><g fill="#c8f6ff"><path d="m212.369 237.834-18.94-9.365c-12.632-6.246-15.528-22.981-5.729-33.108l17.88-18.48c8.177-8.451 21.728-8.449 29.902.005l6.672 6.9c5.079 5.252 7.029 12.784 5.138 19.842l-5.612 20.944c-3.398 12.679-17.545 19.08-29.311 13.262z"/><path d="m163.865 294.784c-5.728-2.017-12.05-1.43-17.309 1.606l-13.758 7.943c-8.043 4.644-18.189 3.393-24.863-3.065l-31.265-30.248c-6.674-6.458-16.82-7.708-24.863-3.064l-34.23 19.763c1.862 6.011 4.005 11.976 6.423 17.88v142.401c0 13.255 10.745 24 24 24s24-10.745 24-24v-70.495c12.183 12.075 25.632 22.506 40 31.199v71.296c0 13.255 10.745 24 24 24s24-10.745 24-24v-49.736c15.578 4.829 31.686 7.9 48 9.126v24.61c0 13.255 10.745 24 24 24s24-10.745 24-24v-26.364c.966-.145 1.932-.293 2.897-.451l14.017-52.313c1.428-5.328.681-11.006-2.078-15.783l-22.702-39.321c-2.482-4.3-6.421-7.57-11.104-9.219z"/><path d="m312 336c-13.233 0-24-10.766-24-24v-40h16v40c0 4.411 3.589 8 8 8s8-3.589 8-8v-16h16v16c0 13.234-10.767 24-24 24z"/><path d="m320 264h16v16h-16z"/><path d="m96 240c-13.233 0-24-10.766-24-24v-40h16v40c0 4.411 3.589 8 8 8s8-3.589 8-8v-16h16v16c0 13.234-10.767 24-24 24z"/><path d="m104 168h16v16h-16z"/><path d="m116 36.904c-19.274 11.127-36.183 24.778-50.553 40.292l29.666 49.905c5.759 9.688 18.237 12.946 27.997 7.311l28.89-16.68v9.411c0 7.97 5.446 15.358 13.313 16.637 10.024 1.632 18.687-6.063 18.687-15.78v-43.076c0-10.784 8.593-19.605 19.374-19.886 7.29-.19 14.1 3.624 17.746 9.94l22.981 39.805c4.471 7.744 13.429 11.718 22.17 9.835l13.729-2.807v29.333c0 7.97 5.446 15.358 13.313 16.637 10.024 1.631 18.687-6.064 18.687-15.781v-38.412c9.682-5.592 16-16.028 16-27.709v-50.873c-64.101-35.44-143.945-37.394-212 1.898z"/></g></svg>