<svg id="Layer_1" height="512" viewBox="0 0 128 128" width="512" xmlns="http://www.w3.org/2000/svg" xmlns:xlink="http://www.w3.org/1999/xlink" data-name="Layer 1"><linearGradient id="linear-gradient" gradientUnits="userSpaceOnUse" x1="121.088" x2="6.912" y1="124.387" y2="10.212"><stop offset="0" stop-color="#1bce89"/><stop offset="1" stop-color="#4e8ed5"/></linearGradient><path d="m78.667 62.25a1.75 1.75 0 0 1 -1.079-3.128l25.141-19.667a1.75 1.75 0 1 1 2.156 2.756l-25.14 19.667a1.738 1.738 0 0 1 -1.078.372zm-27.956-.672a1.75 1.75 0 0 0 -.3-2.456l-25.14-19.667a1.75 1.75 0 1 0 -2.156 2.756l25.14 19.667a1.749 1.749 0 0 0 2.457-.3zm-19.133 45.05 26.5-20.75a1.75 1.75 0 1 0 -2.158-2.756l-26.5 20.75a1.75 1.75 0 0 0 2.158 2.756zm67.3-.3a1.751 1.751 0 0 0 -.3-2.457l-26.5-20.75a1.75 1.75 0 0 0 -2.158 2.756l26.5 20.75a1.751 1.751 0 0 0 2.457-.3zm-23.128-33v5.11a1.75 1.75 0 0 1 -1.75 1.752h-20a1.75 1.75 0 0 1 -1.75-1.75v-5.11a11.068 11.068 0 0 1 4.394-8.83 9.977 9.977 0 1 1 14.712 0 11.068 11.068 0 0 1 4.394 8.83zm-18.227-15.546a6.477 6.477 0 1 0 6.477-6.476 6.485 6.485 0 0 0 -6.477 6.476zm14.727 15.548a7.562 7.562 0 0 0 -3.875-6.594 9.857 9.857 0 0 1 -8.749 0 7.562 7.562 0 0 0 -3.876 6.594v3.36h16.5zm51-43.05v5.11a1.75 1.75 0 0 1 -1.75 1.75h-20a1.75 1.75 0 0 1 -1.75-1.75v-5.11a11.079 11.079 0 0 1 4.392-8.839 9.977 9.977 0 1 1 14.716 0 11.079 11.079 0 0 1 4.392 8.839zm-18.227-15.552a6.477 6.477 0 1 0 6.477-6.478 6.484 6.484 0 0 0 -6.477 6.478zm14.727 15.552a7.571 7.571 0 0 0 -3.871-6.6 9.857 9.857 0 0 1 -8.758 0 7.571 7.571 0 0 0 -3.871 6.6v3.36h16.5zm-91.5 0v5.11a1.75 1.75 0 0 1 -1.75 1.75h-20a1.75 1.75 0 0 1 -1.75-1.75v-5.11a11.079 11.079 0 0 1 4.392-8.839 9.977 9.977 0 1 1 14.716 0 11.079 11.079 0 0 1 4.392 8.839zm-18.227-15.552a6.477 6.477 0 1 0 6.477-6.478 6.484 6.484 0 0 0 -6.477 6.478zm14.727 15.552a7.571 7.571 0 0 0 -3.871-6.6 9.857 9.857 0 0 1 -8.758 0 7.571 7.571 0 0 0 -3.871 6.6v3.36h16.5zm3.5 86.109v5.11a1.75 1.75 0 0 1 -1.75 1.75h-20a1.75 1.75 0 0 1 -1.75-1.75v-5.11a11.066 11.066 0 0 1 4.4-8.832 9.977 9.977 0 1 1 14.707 0 11.066 11.066 0 0 1 4.393 8.833zm-18.227-15.551a6.477 6.477 0 1 0 6.477-6.477 6.485 6.485 0 0 0 -6.477 6.477zm14.727 15.552a7.56 7.56 0 0 0 -3.88-6.6 9.856 9.856 0 0 1 -8.74 0 7.56 7.56 0 0 0 -3.88 6.6v3.36h16.5zm98.5 0v5.11a1.75 1.75 0 0 1 -1.75 1.75h-20a1.75 1.75 0 0 1 -1.75-1.75v-5.11a11.066 11.066 0 0 1 4.4-8.832 9.977 9.977 0 1 1 14.707 0 11.066 11.066 0 0 1 4.393 8.832zm-18.227-15.552a6.477 6.477 0 1 0 6.477-6.477 6.485 6.485 0 0 0 -6.477 6.477zm14.727 15.552a7.56 7.56 0 0 0 -3.88-6.6 9.856 9.856 0 0 1 -8.74 0 7.56 7.56 0 0 0 -3.88 6.6v3.36h16.5z" fill="url(#linear-gradient)"/></svg>