<?xml version="1.0" encoding="iso-8859-1"?>
<!-- Generator: Adobe Illustrator 19.0.0, SVG Export Plug-In . SVG Version: 6.00 Build 0)  -->
<svg version="1.1" id="Capa_1" xmlns="http://www.w3.org/2000/svg" xmlns:xlink="http://www.w3.org/1999/xlink" x="0px" y="0px"
	 viewBox="0 0 512 512" style="enable-background:new 0 0 512 512;" xml:space="preserve">
<g>
	<path style="fill:#1DE8F1;" d="M391,466c-39.3,29.399-85.8,46-135,46c-74.099,0-143.401-37.601-185.7-98.8
		c-4.501-6.899-2.999-16.199,3.9-21c6.899-4.799,16.199-2.999,21,3.9C131.499,449.2,191.8,481,256,481
		c42.599,0,83.101-13.5,117.001-39c6.599-5.101,15.899-3.602,20.999,2.999C398.8,451.599,397.599,460.899,391,466z"/>
	<path style="fill:#1DE8F1;" d="M304.3,443.8c-15.599,4.799-31.8,7.2-48.3,7.2c-45.901,0-90.3-19.501-121.5-53.401
		c-5.4-6-5.099-15.599,0.899-21c6.301-5.7,15.601-5.4,21.301,0.901c25.201,27.599,62.1,42.9,99.3,43.2c13.2,0.3,26.7-1.8,39.6-5.7
		c7.8-2.401,16.199,2.1,18.6,10.201C316.601,432.999,312.1,441.4,304.3,443.8z"/>
</g>
<g>
	<path style="fill:#1BD9DE;" d="M304.3,443.8c-15.599,4.799-31.8,7.2-48.3,7.2v-30.3c13.2,0.3,26.7-1.8,39.6-5.7
		c7.8-2.401,16.199,2.1,18.6,10.201C316.601,432.999,312.1,441.4,304.3,443.8z"/>
	<path style="fill:#1BD9DE;" d="M391,466c-39.3,29.399-85.8,46-135,46v-31c42.599,0,83.101-13.5,117.001-39
		c6.599-5.101,15.899-3.602,20.999,2.999C398.8,451.599,397.599,460.899,391,466z"/>
	<path style="fill:#1BD9DE;" d="M438.856,390.297c-7.471-3.589-10.605-12.554-7.017-20.024C444.555,343.847,451,315.502,451,286
		c0-78.105-46.494-148.506-118.462-179.355c-7.617-3.267-11.147-12.085-7.881-19.688c3.267-7.632,12.144-11.162,19.688-7.881
		C427.357,114.643,481,195.868,481,286c0,34.043-7.441,66.768-22.119,97.28C455.236,390.817,446.213,393.847,438.856,390.297z"/>
	<path style="fill:#1BD9DE;" d="M399.174,345.854c-1.479,0-2.988-0.22-4.482-0.688c-7.91-2.476-12.305-10.898-9.829-18.794
		C388.935,313.363,391,299.784,391,286c0-37.822-15.249-72.891-42.935-98.73c-6.05-5.654-6.372-15.146-0.718-21.211
		c5.625-6.05,15.117-6.387,21.196-0.718C401.884,196.454,421,240.443,421,286c0,16.831-2.534,33.428-7.515,49.336
		C411.479,341.752,405.561,345.854,399.174,345.854z"/>
</g>
<g>
	<path style="fill:#1DE8F1;" d="M47.479,326.181c-7.5,0-13.975-5.61-14.883-13.228C31.542,304.105,31,295.126,31,286
		c0-116.953,91.274-215.508,207.817-224.341c8.276-0.791,15.454,5.552,16.084,13.828c0.63,8.247-5.566,15.454-13.828,16.084
		C140.102,99.232,61,184.633,61,286c0,7.925,0.483,15.732,1.392,23.408C63.449,318.28,56.535,326.181,47.479,326.181z"/>
	<path style="fill:#1DE8F1;" d="M106.454,266.84c-8.071-1.86-13.11-9.917-11.25-17.988c14.165-61.553,63.149-110.186,124.79-123.911
		c7.998-1.699,16.099,3.296,17.9,11.396c1.787,8.086-3.296,16.099-11.396,17.9c-50.405,11.206-90.469,50.991-102.056,101.353
		C122.574,263.714,114.461,268.688,106.454,266.84z"/>
</g>
<path style="fill:#A4D9F5;" d="M309.401,158.5L270.399,9.899C268.599,3.3,262.301,0,256,0c-6.301,0-12.599,3.3-14.399,9.899
	l-38.701,147.7c-14.399,43.2,5.7,91.5,46.501,111.901c2.098,0.899,4.199,1.5,6.599,1.5c2.4,0,4.501-0.601,6.599-1.5
	C303.401,249.099,323.5,200.799,309.401,158.5z"/>
<path style="fill:#81C8EE;" d="M493.076,435.475L339.76,395.878c-43.828-8.921-75.498-50.186-72.744-95.786
	c0.278-4.702,2.769-9.009,6.709-11.602c38.071-25.166,89.663-18.384,119.971,15.776l113.882,106.101
	c4.819,4.805,5.815,12.246,2.417,18.135C506.662,434.272,499.798,437.288,493.076,435.475z"/>
<path style="fill:#A4D9F5;" d="M2.005,428.502c-3.398-5.889-2.402-13.33,2.417-18.135l114.527-106.775
	c29.663-33.457,81.27-40.239,119.326-15.103c3.94,2.593,6.431,6.899,6.709,11.602c2.754,45.601-28.916,86.865-73.667,96.006
	L18.924,435.475C12.203,437.288,5.339,434.272,2.005,428.502z"/>
<path style="fill:#81C8EE;" d="M262.599,269.5c-2.098,0.899-4.199,1.5-6.599,1.5V0c6.301,0,12.599,3.3,14.399,9.899L309.401,158.5
	C323.5,200.799,303.401,249.099,262.599,269.5z"/>
<path style="fill:#CAE8F9;" d="M256,241c-24.901,0-45,20.099-45,45c0,24.899,20.099,45,45,45s45-20.101,45-45
	C301,261.099,280.901,241,256,241z"/>
<path style="fill:#B7E0F6;" d="M301,286c0,24.899-20.099,45-45,45v-90C280.901,241,301,261.099,301,286z"/>
<g>
</g>
<g>
</g>
<g>
</g>
<g>
</g>
<g>
</g>
<g>
</g>
<g>
</g>
<g>
</g>
<g>
</g>
<g>
</g>
<g>
</g>
<g>
</g>
<g>
</g>
<g>
</g>
<g>
</g>
</svg>
